<?xml version="1.0" encoding="UTF-8"?>
<svg width="768" height="512" viewBox="0 0 768 512" fill="none" xmlns="http://www.w3.org/2000/svg">
  <!-- Background with gradient -->
  <rect width="768" height="512" rx="8" fill="url(#paint0_linear)"/>
  
  <!-- Decorative elements - abstract patterns representing categories -->
  <circle cx="192" cy="192" r="96" stroke="#8A7D65" stroke-width="16" stroke-opacity="0.6"/>
  <rect x="448" y="96" width="192" height="192" rx="16" stroke="#8A7D65" stroke-width="16" stroke-opacity="0.4"/>
  
  <!-- Intersecting shapes representing product categories -->
  <path d="M384 224C384 277.019 341.019 320 288 320C234.981 320 192 277.019 192 224C192 170.981 234.981 128 288 128C341.019 128 384 170.981 384 224Z" fill="#8A7D65" fill-opacity="0.1"/>
  <path d="M576 224C576 277.019 533.019 320 480 320C426.981 320 384 277.019 384 224C384 170.981 426.981 128 480 128C533.019 128 576 170.981 576 224Z" fill="#8A7D65" fill-opacity="0.1"/>
  
  <!-- Title text -->
  <text x="384" y="416" text-anchor="middle" font-family="Arial" font-size="32" font-weight="bold" fill="#8A7D65">Categorie Principală</text>
  
  <!-- Definitions -->
  <defs>
    <linearGradient id="paint0_linear" x1="0" y1="0" x2="768" y2="512" gradientUnits="userSpaceOnUse">
      <stop stop-color="#F8F8F6"/>
      <stop offset="1" stop-color="#E6E5E3"/>
    </linearGradient>
  </defs>
</svg> 