<svg width="600" height="600" viewBox="0 0 600 600" fill="none" xmlns="http://www.w3.org/2000/svg">
  <rect width="600" height="600" fill="#f5f5f5"/>
  <path d="M300 180C244.772 180 200 224.772 200 280C200 335.228 244.772 380 300 380C355.228 380 400 335.228 400 280C400 224.772 355.228 180 300 180Z" fill="#DEDBD4"/>
  <path d="M280 220C253.49 220 232 241.49 232 268C232 294.51 253.49 316 280 316C306.51 316 328 294.51 328 268C328 241.49 306.51 220 280 220Z" fill="#C5BFB6"/>
  <path d="M330 250C312.327 250 298 264.327 298 282C298 299.673 312.327 314 330 314C347.673 314 362 299.673 362 282C362 264.327 347.673 250 330 250Z" fill="#D1CCC3"/>
  <path d="M310 284C296.745 284 286 294.745 286 308C286 321.255 296.745 332 310 332C323.255 332 334 321.255 334 308C334 294.745 323.255 284 310 284Z" fill="#E6E2DC"/>
  <path d="M260 268C250.059 268 242 276.059 242 286C242 295.941 250.059 304 260 304C269.941 304 278 295.941 278 286C278 276.059 269.941 268 260 268Z" fill="#ADA89E"/>
  <path d="M340 268C330.059 268 322 276.059 322 286C322 295.941 330.059 304 340 304C349.941 304 358 295.941 358 286C358 276.059 349.941 268 340 268Z" fill="#E6E2DC"/>
  <path d="M300 200C277.909 200 260 217.909 260 240C260 262.091 277.909 280 300 280C322.091 280 340 262.091 340 240C340 217.909 322.091 200 300 200Z" fill="#8A7D65" fill-opacity="0.4"/>
  <text x="300" y="440" font-family="Arial" font-size="24" fill="#404040" text-anchor="middle">ILLUSION CRYSTAL</text>
  <text x="300" y="470" font-family="Arial" font-size="18" fill="#696969" text-anchor="middle">Vopsea decorativă cu aspect perlat și structurat</text>
</svg> 