<?xml version="1.0" encoding="UTF-8"?>
<svg width="512" height="512" viewBox="0 0 512 512" fill="none" xmlns="http://www.w3.org/2000/svg">
  <!-- Background gradient -->
  <rect width="512" height="512" rx="8" fill="url(#paint0_linear)"/>
  
  <!-- Image icon -->
  <path d="M128 176C128 158.327 142.327 144 160 144H352C369.673 144 384 158.327 384 176V336C384 353.673 369.673 368 352 368H160C142.327 368 128 353.673 128 336V176Z" stroke="#8A7D65" stroke-width="16" stroke-linecap="round" stroke-linejoin="round"/>
  
  <!-- Sun/mountain -->
  <circle cx="176" cy="208" r="24" fill="#8A7D65" opacity="0.8"/>
  <path d="M160 320L208 272L240 304L304 240L352 288V336C352 341.523 347.523 346 342 346H170C164.477 346 160 341.523 160 336V320Z" fill="#8A7D65" opacity="0.4"/>
  
  <!-- Text -->
  <text x="256" y="416" text-anchor="middle" font-family="Arial" font-size="24" font-weight="bold" fill="#8A7D65">Imagine indisponibilă</text>
  
  <!-- Definitions -->
  <defs>
    <linearGradient id="paint0_linear" x1="0" y1="0" x2="512" y2="512" gradientUnits="userSpaceOnUse">
      <stop stop-color="#F8F8F6"/>
      <stop offset="1" stop-color="#EAEAE8"/>
    </linearGradient>
  </defs>
</svg> 