<svg width="180" height="50" viewBox="0 0 180 50" fill="none" xmlns="http://www.w3.org/2000/svg">
  <rect width="180" height="50" fill="white"/>
  <path d="M27.4 35.5C26.2 35.5 25.1 35.2 24.1 34.6C23.1 34 22.3 33.1 21.7 32C21.1 30.9 20.8 29.6 20.8 28.2C20.8 26.8 21.1 25.5 21.7 24.4C22.3 23.3 23.1 22.5 24.1 21.9C25.1 21.3 26.2 21 27.4 21C28.6 21 29.7 21.3 30.7 21.9C31.7 22.5 32.5 23.3 33.1 24.4C33.7 25.5 34 26.8 34 28.2C34 29.6 33.7 30.9 33.1 32C32.5 33.1 31.7 34 30.7 34.6C29.7 35.2 28.6 35.5 27.4 35.5ZM27.4 33.5C28.2 33.5 28.9 33.3 29.6 32.9C30.3 32.5 30.8 31.9 31.2 31.1C31.6 30.3 31.8 29.3 31.8 28.2C31.8 27.1 31.6 26.1 31.2 25.3C30.8 24.5 30.3 23.9 29.6 23.5C28.9 23.1 28.2 22.9 27.4 22.9C26.6 22.9 25.9 23.1 25.2 23.5C24.5 23.9 24 24.5 23.6 25.3C23.2 26.1 23 27.1 23 28.2C23 29.3 23.2 30.3 23.6 31.1C24 31.9 24.5 32.5 25.2 32.9C25.9 33.3 26.6 33.5 27.4 33.5Z" fill="#555555"/>
  <path d="M40.7 35.5C39.8 35.5 39 35.3 38.3 34.9C37.6 34.5 37.1 33.9 36.7 33.2C36.3 32.5 36.1 31.6 36.1 30.6V21.2H38.3V30.3C38.3 31.5 38.6 32.4 39.2 33C39.8 33.6 40.6 33.9 41.5 33.9C42.1 33.9 42.6 33.8 43.1 33.5C43.6 33.2 44 32.8 44.3 32.3C44.6 31.8 44.8 31.1 44.8 30.3V21.2H47V35.3H44.9V33.1L45.2 33.3C44.8 34 44.3 34.5 43.5 34.9C42.7 35.3 41.8 35.5 40.7 35.5Z" fill="#555555"/>
  <path d="M58.5 35.3L53.6 28.7V35.3H51.4V21.2H53.6V27.7L58.4 21.2H61.1L55.6 28.5L61.3 35.3H58.5Z" fill="#555555"/>
  <path d="M67.7 35.5C66.5 35.5 65.5 35.2 64.5 34.7C63.5 34.2 62.8 33.5 62.2 32.5L63.9 31.5C64.3 32.2 64.8 32.7 65.5 33.1C66.2 33.5 66.9 33.7 67.8 33.7C68.7 33.7 69.4 33.5 69.9 33.1C70.4 32.7 70.7 32.2 70.7 31.6C70.7 31.1 70.5 30.7 70.2 30.4C69.9 30.1 69.5 29.9 69.1 29.7C68.7 29.5 68.1 29.3 67.3 29.1C66.3 28.8 65.5 28.5 64.9 28.2C64.3 27.9 63.8 27.5 63.4 26.9C63 26.3 62.8 25.6 62.8 24.7C62.8 23.9 63 23.2 63.4 22.6C63.8 22 64.4 21.5 65.2 21.2C66 20.9 66.9 20.7 68 20.7C69.1 20.7 70.1 20.9 71 21.3C71.9 21.7 72.6 22.3 73.1 23.1L71.4 24.1C71 23.5 70.5 23.1 69.9 22.8C69.3 22.5 68.6 22.4 67.9 22.4C67.1 22.4 66.4 22.6 65.9 22.9C65.4 23.2 65.1 23.7 65.1 24.3C65.1 24.8 65.3 25.2 65.6 25.5C65.9 25.8 66.3 26 66.7 26.2C67.1 26.4 67.7 26.6 68.4 26.8C69.4 27.1 70.2 27.4 70.8 27.7C71.4 28 71.9 28.4 72.3 29C72.7 29.6 72.9 30.3 72.9 31.2C72.9 32 72.7 32.7 72.3 33.3C71.9 33.9 71.3 34.4 70.5 34.8C69.7 35.3 68.8 35.5 67.7 35.5Z" fill="#555555"/>
  <path d="M81.2 35.5C80.1 35.5 79.2 35.3 78.3 34.9C77.4 34.5 76.7 33.9 76.1 33.1C75.5 32.3 75.2 31.3 75.2 30.2C75.2 29.1 75.4 28.2 75.9 27.4C76.4 26.6 77 26 77.9 25.6C78.8 25.2 79.7 25 80.9 25C82 25 82.9 25.2 83.7 25.6C84.5 26 85.1 26.6 85.6 27.3C86.1 28 86.3 28.9 86.3 29.9C86.3 30.1 86.3 30.2 86.3 30.4C86.3 30.6 86.3 30.7 86.2 30.9H77L76.7 29.4H84.8L84.5 29.7C84.5 29 84.3 28.4 84 27.9C83.7 27.4 83.3 27 82.8 26.7C82.3 26.4 81.7 26.3 81 26.3C80.3 26.3 79.6 26.4 79.1 26.7C78.6 27 78.2 27.5 77.9 28.1C77.6 28.7 77.5 29.4 77.5 30.2C77.5 31 77.6 31.7 78 32.3C78.4 32.9 78.8 33.4 79.4 33.7C80 34 80.6 34.2 81.4 34.2C82 34.2 82.6 34.1 83.1 33.9C83.6 33.7 84.1 33.4 84.5 33L85.7 34.2C85.2 34.7 84.5 35.1 83.8 35.3C83.1 35.5 82.2 35.5 81.2 35.5Z" fill="#555555"/>
  <path d="M94.3 35.5C93.2 35.5 92.2 35.3 91.3 34.9C90.4 34.5 89.7 33.9 89.1 33.1C88.5 32.3 88.2 31.3 88.2 30.1C88.2 29 88.5 28 89 27.2C89.5 26.4 90.2 25.8 91.1 25.4C92 25 92.9 24.8 94 24.8C95 24.8 95.9 25 96.7 25.4C97.5 25.8 98.2 26.3 98.6 27C99 27.7 99.3 28.5 99.3 29.4C99.3 29.6 99.3 29.9 99.2 30.1C99.1 30.3 99.1 30.5 99 30.7H90.6L89.7 29.3H97.7L97.2 29.8V29.4C97.1 28.7 96.9 28.1 96.5 27.7C96.1 27.3 95.7 27 95.1 26.7C94.5 26.4 94 26.3 93.3 26.3C92.5 26.3 91.7 26.5 91.1 26.8C90.5 27.1 90 27.6 89.6 28.2C89.2 28.8 89 29.5 89 30.2C89 31 89.2 31.7 89.6 32.3C90 32.9 90.5 33.4 91.2 33.7C91.9 34 92.6 34.2 93.5 34.2C94.2 34.2 94.8 34.1 95.4 33.8C96 33.5 96.6 33.1 97.1 32.6L97.9 33.7C97.4 34.3 96.7 34.7 95.9 35.1C95.1 35.4 94.3 35.5 94.3 35.5Z" fill="#555555"/>
  <path d="M101.6 35.3V21.2H103.8V27.5H111.6V21.2H113.8V35.3H111.6V29.3H103.8V35.3H101.6Z" fill="#555555"/>
  <path d="M116.9 35.3V21.2H119.1V35.3H116.9Z" fill="#555555"/>
  <path d="M127.9 35.5C126.8 35.5 125.8 35.3 124.9 34.9C124 34.5 123.3 33.9 122.7 33.1C122.1 32.3 121.8 31.3 121.8 30.2C121.8 29.1 122 28.2 122.5 27.4C123 26.6 123.6 26 124.5 25.6C125.4 25.2 126.3 25 127.5 25C128.6 25 129.5 25.2 130.3 25.6C131.1 26 131.7 26.6 132.2 27.3C132.7 28 132.9 28.9 132.9 29.9C132.9 30.1 132.9 30.2 132.9 30.4C132.9 30.6 132.9 30.7 132.8 30.9H123.6L123.3 29.4H131.4L131.1 29.7C131.1 29 130.9 28.4 130.6 27.9C130.3 27.4 129.9 27 129.4 26.7C128.9 26.4 128.3 26.3 127.6 26.3C126.9 26.3 126.2 26.4 125.7 26.7C125.2 27 124.8 27.5 124.5 28.1C124.2 28.7 124.1 29.4 124.1 30.2C124.1 31 124.2 31.7 124.6 32.3C125 32.9 125.4 33.4 126 33.7C126.6 34 127.2 34.2 128 34.2C128.6 34.2 129.2 34.1 129.7 33.9C130.2 33.7 130.7 33.4 131.1 33L132.3 34.2C131.8 34.7 131.1 35.1 130.4 35.3C129.7 35.4 128.8 35.5 127.9 35.5Z" fill="#555555"/>
  <path d="M141.3 35.3V33.1L141.4 32.5V28.1C141.4 27.3 141.2 26.7 140.7 26.3C140.2 25.9 139.5 25.7 138.6 25.7C138 25.7 137.3 25.8 136.7 26C136.1 26.2 135.6 26.5 135.2 26.9L134.3 25.7C134.9 25.1 135.5 24.7 136.3 24.5C137.1 24.3 137.9 24.1 138.7 24.1C140.2 24.1 141.3 24.5 142.1 25.1C142.9 25.7 143.3 26.8 143.3 28.1V35.3H141.3ZM137.9 35.5C137.1 35.5 136.4 35.4 135.8 35.1C135.2 34.8 134.7 34.4 134.4 33.9C134.1 33.4 133.9 32.8 133.9 32.2C133.9 31.6 134 31.1 134.3 30.7C134.6 30.3 135 29.9 135.6 29.6C136.2 29.3 137 29.2 137.9 29.2H141.6V30.6H138C137.1 30.6 136.5 30.8 136.1 31C135.7 31.3 135.5 31.7 135.5 32.2C135.5 32.7 135.7 33.1 136.2 33.4C136.7 33.7 137.3 33.9 138.1 33.9C138.8 33.9 139.5 33.7 140 33.4C140.5 33.1 141 32.6 141.3 32L141.7 33.3C141.4 34 140.9 34.5 140.2 34.9C139.6 35.3 138.8 35.5 137.9 35.5Z" fill="#555555"/>
  <path d="M151.4 39.1C150.2 39.1 149.2 38.9 148.4 38.5C147.6 38.1 147 37.7 146.7 37.1L147.8 35.9C148.1 36.3 148.6 36.7 149.2 37C149.8 37.3 150.6 37.5 151.5 37.5C152.6 37.5 153.5 37.2 154.1 36.7C154.7 36.2 155 35.3 155 34.2V32.1L155.1 30.8V25.1H157V34.1C157 35.9 156.5 37.3 155.5 38.2C154.5 39.1 153.1 39.1 151.4 39.1ZM150.9 34.7C149.9 34.7 149 34.5 148.2 34.1C147.4 33.7 146.8 33.1 146.3 32.3C145.8 31.5 145.6 30.6 145.6 29.6C145.6 28.6 145.8 27.7 146.3 26.9C146.8 26.1 147.4 25.5 148.2 25.1C149 24.7 149.9 24.5 150.9 24.5C151.8 24.5 152.6 24.7 153.3 25C154 25.3 154.6 25.9 155 26.5L154.7 27.3V24.2H156.6V32.1C156.6 32.1 156.6 32.1 156.6 32.1C156.6 32.1 156.6 32.2 156.6 32.2V33.1H155V29.8L155.3 30.6C154.9 31.3 154.3 31.8 153.5 32.2C152.8 34.5 151.9 34.7 150.9 34.7ZM151.2 33C152 33 152.7 32.8 153.3 32.5C153.9 32.2 154.3 31.7 154.7 31.1C155 30.5 155.2 29.8 155.2 29.1C155.2 28.3 155 27.7 154.7 27.1C154.3 26.5 153.9 26 153.3 25.7C152.7 25.4 152 25.2 151.2 25.2C150.4 25.2 149.7 25.4 149.1 25.7C148.5 26 148 26.5 147.7 27.1C147.4 27.7 147.2 28.4 147.2 29.1C147.2 29.8 147.4 30.5 147.7 31.1C148 31.7 148.5 32.2 149.1 32.5C149.7 32.8 150.4 33 151.2 33Z" fill="#555555"/>
  <path d="M160.3 35.3V21.2H162.5V27.1L168.8 21.2H171.5L166 26.5L172 35.3H169.3L164.7 28.4L162.5 30.5V35.3H160.3Z" fill="#555555"/>
  <path d="M27.4 35.5C26.2 35.5 25.1 35.2 24.1 34.6C23.1 34 22.3 33.1 21.7 32C21.1 30.9 20.8 29.6 20.8 28.2C20.8 26.8 21.1 25.5 21.7 24.4C22.3 23.3 23.1 22.5 24.1 21.9C25.1 21.3 26.2 21 27.4 21C28.6 21 29.7 21.3 30.7 21.9C31.7 22.5 32.5 23.3 33.1 24.4C33.7 25.5 34 26.8 34 28.2C34 29.6 33.7 30.9 33.1 32C32.5 33.1 31.7 34 30.7 34.6C29.7 35.2 28.6 35.5 27.4 35.5ZM27.4 33.5C28.2 33.5 28.9 33.3 29.6 32.9C30.3 32.5 30.8 31.9 31.2 31.1C31.6 30.3 31.8 29.3 31.8 28.2C31.8 27.1 31.6 26.1 31.2 25.3C30.8 24.5 30.3 23.9 29.6 23.5C28.9 23.1 28.2 22.9 27.4 22.9C26.6 22.9 25.9 23.1 25.2 23.5C24.5 23.9 24 24.5 23.6 25.3C23.2 26.1 23 27.1 23 28.2C23 29.3 23.2 30.3 23.6 31.1C24 31.9 24.5 32.5 25.2 32.9C25.9 33.3 26.6 33.5 27.4 33.5Z" fill="#8a7d65"/>
  <path d="M40.7 35.5C39.8 35.5 39 35.3 38.3 34.9C37.6 34.5 37.1 33.9 36.7 33.2C36.3 32.5 36.1 31.6 36.1 30.6V21.2H38.3V30.3C38.3 31.5 38.6 32.4 39.2 33C39.8 33.6 40.6 33.9 41.5 33.9C42.1 33.9 42.6 33.8 43.1 33.5C43.6 33.2 44 32.8 44.3 32.3C44.6 31.8 44.8 31.1 44.8 30.3V21.2H47V35.3H44.9V33.1L45.2 33.3C44.8 34 44.3 34.5 43.5 34.9C42.7 35.3 41.8 35.5 40.7 35.5Z" fill="#8a7d65"/>
</svg> 