<svg width="48" height="48" viewBox="0 0 48 48" fill="none" xmlns="http://www.w3.org/2000/svg">
  <path d="M42 14C42 26 32 36 18 36C18 24 28 14 42 14Z" stroke="#B99C4B" stroke-width="2" stroke-linecap="round" stroke-linejoin="round"/>
  <path d="M42 14C30 14 20 24 20 36C8 36 6 24 6 14C18 14 28 14 30 14C32 14 30 6 42 6C42 18 42 12 42 14Z" stroke="#B99C4B" stroke-width="2" stroke-linecap="round" stroke-linejoin="round"/>
  <path d="M6 42C9.9 35.8 14.2 29.3 18 22.3" stroke="#F0E4B2" stroke-width="2" stroke-linecap="round" stroke-linejoin="round"/>
  <path d="M17.5 41.7C21.3 38.6 24.6 35 27.4 31" stroke="#F0E4B2" stroke-width="2" stroke-linecap="round" stroke-linejoin="round"/>
  <path d="M27.9 41.9C30 39.7 31.9 37.3 33.6 34.9" stroke="#F0E4B2" stroke-width="2" stroke-linecap="round" stroke-linejoin="round"/>
</svg> 